<svg width="31" height="24" viewBox="0 0 31 24" fill="none" xmlns="http://www.w3.org/2000/svg">
<g id="material-symbols:add-shopping-cart">
<rect x="0.523926" width="30.4762" height="24" rx="5" fill="#D5906E" fill-opacity="0.3"/>
<path id="Vector" d="M15.6739 10.0952V7.80952H12.6527V6.28571H15.6739V4H17.688V6.28571H20.7092V7.80952H17.688V10.0952H15.6739ZM11.6456 20C11.0918 20 10.6178 19.8509 10.2237 19.5528C9.8289 19.2541 9.63152 18.8952 9.63152 18.4762C9.63152 18.0571 9.8289 17.6983 10.2237 17.3996C10.6178 17.1015 11.0918 16.9524 11.6456 16.9524C12.1995 16.9524 12.6735 17.1015 13.0676 17.3996C13.4624 17.6983 13.6598 18.0571 13.6598 18.4762C13.6598 18.8952 13.4624 19.2541 13.0676 19.5528C12.6735 19.8509 12.1995 20 11.6456 20ZM21.7163 20C21.1624 20 20.6884 19.8509 20.2943 19.5528C19.8995 19.2541 19.7021 18.8952 19.7021 18.4762C19.7021 18.0571 19.8995 17.6983 20.2943 17.3996C20.6884 17.1015 21.1624 16.9524 21.7163 16.9524C22.2701 16.9524 22.7445 17.1015 23.1392 17.3996C23.5333 17.6983 23.7304 18.0571 23.7304 18.4762C23.7304 18.8952 23.5333 19.2541 23.1392 19.5528C22.7445 19.8509 22.2701 20 21.7163 20ZM11.6456 16.1905C10.8903 16.1905 10.3113 15.9396 9.90846 15.4377C9.50563 14.9364 9.49724 14.4381 9.88328 13.9429L11.2428 12.0762L7.61739 6.28571H5.60327V4.7619H8.9014L13.1814 11.619H20.256L24.1584 6.28571L25.9207 7.00952L22.0184 12.3429C21.8337 12.5968 21.5904 12.7937 21.2883 12.9333C20.9861 13.073 20.6421 13.1429 20.256 13.1429H12.7534L11.6456 14.6667H23.7304V16.1905H11.6456Z" fill="#402101"/>
</g>
</svg>
