<svg width="18" height="17" viewBox="0 0 18 17" fill="none" xmlns="http://www.w3.org/2000/svg">
<path id="Vector" d="M16.95 16.2C14.8 16.2 12.7043 15.7686 10.663 14.9058C8.621 14.0436 6.81267 12.9036 5.238 11.4858C3.66267 10.0686 2.396 8.4411 1.438 6.6033C0.479334 4.7661 0 2.88 0 0.945C0 0.675 0.0999999 0.45 0.3 0.27C0.5 0.09 0.75 0 1.05 0H5.1C5.33333 0 5.54167 0.0674999 5.725 0.2025C5.90833 0.3375 6.01667 0.51 6.05 0.72L6.7 3.87C6.73333 4.08 6.72933 4.2711 6.688 4.4433C6.646 4.6161 6.55 4.77 6.4 4.905L4 7.11C4.7 8.19 5.575 9.2025 6.625 10.1475C7.675 11.0925 8.83333 11.91 10.1 12.6L12.45 10.485C12.6 10.35 12.796 10.2486 13.038 10.1808C13.2793 10.1136 13.5167 10.095 13.75 10.125L17.2 10.755C17.4333 10.8 17.625 10.9011 17.775 11.0583C17.925 11.2161 18 11.4 18 11.61V15.255C18 15.525 17.9 15.75 17.7 15.93C17.5 16.11 17.25 16.2 16.95 16.2Z" fill="white"/>
</svg>
